<?xml version="1.0" encoding="UTF-8" standalone="no"?>
<!DOCTYPE svg PUBLIC "-//W3C//DTD SVG 1.1//EN" "http://www.w3.org/Graphics/SVG/1.1/DTD/svg11.dtd">
<svg width="100%" height="100%" viewBox="0 0 1441 170" version="1.1" xmlns="http://www.w3.org/2000/svg" xmlns:xlink="http://www.w3.org/1999/xlink" xml:space="preserve" xmlns:serif="http://www.serif.com/" style="fill-rule:evenodd;clip-rule:evenodd;stroke-linejoin:round;stroke-miterlimit:2;">
    <g transform="matrix(1,0,0,1,-1558,-1329)">
        <g transform="matrix(0.945226,0,0,0.844318,3020.89,1364.8)">
            <g id="Clouds">
                <g transform="matrix(1,0,0,1.11951,-614.911,32.8023)">
                    <path d="M0,13.856C-0.55,13.856 -1.09,13.896 -1.622,13.964C-1.541,13.429 -1.485,12.885 -1.485,12.327C-1.485,6.344 -6.31,1.493 -12.28,1.441C-12.078,0.371 -11.968,-0.719 -11.968,-1.819C-11.968,-6.496 -13.789,-10.893 -17.096,-14.199C-20.403,-17.506 -24.8,-19.328 -29.477,-19.328C-33.777,-19.328 -37.914,-17.75 -41.125,-14.886L-42.267,-13.868L-42.938,-15.242C-44.358,-18.146 -46.552,-20.601 -49.283,-22.34C-52.086,-24.127 -55.334,-25.072 -58.676,-25.072C-62.464,-25.072 -66.07,-23.881 -69.102,-21.629C-70.562,-20.544 -71.84,-19.246 -72.901,-17.769C-73.975,-16.274 -74.802,-14.631 -75.359,-12.885L-75.593,-12.148L-76.363,-12.081C-80.352,-11.734 -84.049,-9.915 -86.774,-6.959C-89.514,-3.987 -91.023,-0.121 -91.023,3.925C-91.023,3.963 -91.021,4.002 -91.02,4.04C-92.442,3.358 -94.03,2.966 -95.712,2.966C-101.727,2.966 -106.603,7.841 -106.603,13.856C-106.603,13.894 -106.598,13.93 -106.597,13.968C-107.138,13.897 -107.688,13.856 -108.249,13.856C-115.172,13.856 -120.785,19.469 -120.785,26.392C-120.785,33.315 -115.172,38.928 -108.249,38.928L0,38.928C6.924,38.928 12.536,33.315 12.536,26.392C12.536,19.469 6.924,13.856 0,13.856" style="fill:white;fill-rule:nonzero;"/>
                </g>
                <g transform="matrix(1,0,0,1.11951,-1210.37,47.5126)">
                    <path d="M0,13.856C-0.55,13.856 -1.09,13.896 -1.622,13.964C-1.541,13.429 -1.485,12.885 -1.485,12.327C-1.485,6.344 -6.31,1.493 -12.28,1.441C-12.078,0.371 -11.968,-0.719 -11.968,-1.819C-11.968,-6.496 -13.789,-10.893 -17.096,-14.199C-20.403,-17.506 -24.8,-19.328 -29.477,-19.328C-33.777,-19.328 -37.914,-17.75 -41.125,-14.886L-42.267,-13.868L-42.938,-15.242C-44.358,-18.146 -46.552,-20.601 -49.283,-22.34C-52.086,-24.127 -55.334,-25.072 -58.676,-25.072C-62.464,-25.072 -66.07,-23.881 -69.102,-21.629C-70.562,-20.544 -71.84,-19.246 -72.901,-17.769C-73.975,-16.274 -74.802,-14.631 -75.359,-12.885L-75.593,-12.148L-76.363,-12.081C-80.352,-11.734 -84.049,-9.915 -86.774,-6.959C-89.514,-3.987 -91.023,-0.121 -91.023,3.925C-91.023,3.963 -91.021,4.002 -91.02,4.04C-92.442,3.358 -94.03,2.966 -95.712,2.966C-101.727,2.966 -106.603,7.841 -106.603,13.856C-106.603,13.894 -106.598,13.93 -106.597,13.968C-107.138,13.897 -107.688,13.856 -108.249,13.856C-115.172,13.856 -120.785,19.469 -120.785,26.392C-120.785,33.315 -115.172,38.928 -108.249,38.928L0,38.928C6.924,38.928 12.536,33.315 12.536,26.392C12.536,19.469 6.924,13.856 0,13.856" style="fill:white;fill-rule:nonzero;"/>
                </g>
                <g transform="matrix(1,0,0,1.11951,-592.787,133.371)">
                    <path d="M0,7.794C-0.309,7.794 -0.613,7.816 -0.912,7.855C-0.867,7.553 -0.835,7.248 -0.835,6.934C-0.835,3.568 -3.549,0.839 -6.908,0.81C-6.794,0.209 -6.732,-0.405 -6.732,-1.023C-6.732,-3.654 -7.756,-6.127 -9.616,-7.987C-11.477,-9.847 -13.95,-10.872 -16.581,-10.872C-19,-10.872 -21.327,-9.985 -23.132,-8.373L-23.775,-7.801L-24.153,-8.574C-24.952,-10.207 -26.186,-11.588 -27.721,-12.567C-29.298,-13.572 -31.125,-14.103 -33.005,-14.103C-35.136,-14.103 -37.164,-13.434 -38.87,-12.166C-39.691,-11.557 -40.41,-10.826 -41.007,-9.996C-41.611,-9.155 -42.076,-8.23 -42.389,-7.248L-42.521,-6.834L-42.954,-6.796C-45.198,-6.601 -47.278,-5.578 -48.81,-3.915C-50.352,-2.243 -51.201,-0.068 -51.201,2.208C-51.201,2.23 -51.199,2.251 -51.199,2.273C-51.999,1.889 -52.892,1.668 -53.838,1.668C-57.221,1.668 -59.964,4.411 -59.964,7.794C-59.964,7.815 -59.961,7.836 -59.961,7.857C-60.265,7.817 -60.575,7.794 -60.89,7.794C-64.784,7.794 -67.941,10.951 -67.941,14.846C-67.941,18.74 -64.784,21.897 -60.89,21.897L0,21.897C3.895,21.897 7.052,18.74 7.052,14.846C7.052,10.951 3.895,7.794 0,7.794" style="fill:white;fill-rule:nonzero;"/>
                </g>
                <g transform="matrix(1,0,0,1.11951,-1401.89,111.499)">
                    <path d="M0,7.794C-0.309,7.794 -0.613,7.816 -0.912,7.855C-0.867,7.553 -0.835,7.248 -0.835,6.934C-0.835,3.568 -3.549,0.839 -6.908,0.81C-6.794,0.209 -6.732,-0.405 -6.732,-1.023C-6.732,-3.654 -7.756,-6.127 -9.616,-7.987C-11.477,-9.847 -13.95,-10.872 -16.581,-10.872C-19,-10.872 -21.327,-9.985 -23.132,-8.373L-23.775,-7.801L-24.153,-8.574C-24.952,-10.207 -26.186,-11.588 -27.721,-12.567C-29.298,-13.572 -31.125,-14.103 -33.005,-14.103C-35.136,-14.103 -37.164,-13.434 -38.87,-12.166C-39.691,-11.557 -40.41,-10.826 -41.007,-9.996C-41.611,-9.155 -42.076,-8.23 -42.389,-7.248L-42.521,-6.834L-42.954,-6.796C-45.198,-6.601 -47.278,-5.578 -48.81,-3.915C-50.352,-2.243 -51.201,-0.068 -51.201,2.208C-51.201,2.23 -51.199,2.251 -51.199,2.273C-51.999,1.889 -52.892,1.668 -53.838,1.668C-57.221,1.668 -59.964,4.411 -59.964,7.794C-59.964,7.815 -59.961,7.836 -59.961,7.857C-60.265,7.817 -60.575,7.794 -60.89,7.794C-64.784,7.794 -67.941,10.951 -67.941,14.846C-67.941,18.74 -64.784,21.897 -60.89,21.897L0,21.897C3.895,21.897 7.052,18.74 7.052,14.846C7.052,10.951 3.895,7.794 0,7.794" style="fill:white;fill-rule:nonzero;"/>
                </g>
                <g transform="matrix(0.847796,0,0,0.965682,-1055.04,97.6476)">
                    <path d="M0,7.794C-0.309,7.794 -0.613,7.816 -0.912,7.855C-0.867,7.553 -0.835,7.248 -0.835,6.934C-0.835,3.568 -3.549,0.839 -6.908,0.81C-6.794,0.209 -6.732,-0.405 -6.732,-1.023C-6.732,-3.654 -7.756,-6.127 -9.616,-7.987C-11.477,-9.847 -13.95,-10.872 -16.581,-10.872C-19,-10.872 -21.327,-9.985 -23.132,-8.373L-23.775,-7.801L-24.153,-8.574C-24.952,-10.207 -26.186,-11.588 -27.721,-12.567C-29.298,-13.572 -31.125,-14.103 -33.005,-14.103C-35.136,-14.103 -37.164,-13.434 -38.87,-12.166C-39.691,-11.557 -40.41,-10.826 -41.007,-9.996C-41.611,-9.155 -42.076,-8.23 -42.389,-7.248L-42.521,-6.834L-42.954,-6.796C-45.198,-6.601 -47.278,-5.578 -48.81,-3.915C-50.352,-2.243 -51.201,-0.068 -51.201,2.208C-51.201,2.23 -51.199,2.251 -51.199,2.273C-51.999,1.889 -52.892,1.668 -53.838,1.668C-57.221,1.668 -59.964,4.411 -59.964,7.794C-59.964,7.815 -59.961,7.836 -59.961,7.857C-60.265,7.817 -60.575,7.794 -60.89,7.794C-64.784,7.794 -67.941,10.951 -67.941,14.846C-67.941,18.74 -64.784,21.897 -60.89,21.897L0,21.897C3.895,21.897 7.052,18.74 7.052,14.846C7.052,10.951 3.895,7.794 0,7.794" style="fill:white;fill-rule:nonzero;"/>
                </g>
                <g transform="matrix(1,0,0,1.11951,-310.983,17.8755)">
                    <path d="M0,7.794C-0.31,7.794 -0.613,7.816 -0.912,7.855C-0.867,7.553 -0.836,7.248 -0.836,6.934C-0.836,3.568 -3.55,0.839 -6.908,0.81C-6.794,0.209 -6.732,-0.405 -6.732,-1.023C-6.732,-3.654 -7.757,-6.127 -9.617,-7.987C-11.478,-9.847 -13.95,-10.872 -16.581,-10.872C-19,-10.872 -21.327,-9.985 -23.133,-8.373L-23.775,-7.801L-24.153,-8.574C-24.952,-10.207 -26.186,-11.588 -27.722,-12.567C-29.299,-13.572 -31.126,-14.103 -33.006,-14.103C-35.137,-14.103 -37.165,-13.434 -38.87,-12.166C-39.691,-11.557 -40.41,-10.826 -41.007,-9.996C-41.611,-9.155 -42.076,-8.23 -42.39,-7.248L-42.521,-6.834L-42.954,-6.796C-45.198,-6.601 -47.278,-5.578 -48.811,-3.915C-50.353,-2.243 -51.201,-0.068 -51.201,2.208C-51.201,2.23 -51.199,2.251 -51.199,2.273C-51.999,1.889 -52.893,1.668 -53.839,1.668C-57.222,1.668 -59.965,4.411 -59.965,7.794C-59.965,7.815 -59.962,7.836 -59.961,7.857C-60.266,7.817 -60.575,7.794 -60.89,7.794C-64.784,7.794 -67.941,10.951 -67.941,14.846C-67.941,18.74 -64.784,21.897 -60.89,21.897L0,21.897C3.895,21.897 7.051,18.74 7.051,14.846C7.051,10.951 3.895,7.794 0,7.794" style="fill:white;fill-rule:nonzero;"/>
                </g>
                <g transform="matrix(1,0,0,1.11951,-106.346,13.4463)">
                    <path d="M0,48.286C0,41.461 -5.533,35.929 -12.357,35.929C-12.971,35.929 -13.568,35.989 -14.157,36.075C-14.148,35.914 -14.14,35.753 -14.14,35.59C-14.14,29.351 -19.197,24.294 -25.436,24.294C-26.761,24.294 -28.027,24.534 -29.209,24.953C-29.059,24.158 -28.972,23.34 -28.972,22.501C-28.972,15.273 -34.831,9.412 -42.061,9.412C-42.914,9.412 -43.746,9.5 -44.554,9.657C-44.545,9.478 -44.527,9.301 -44.527,9.12C-44.527,3.64 -48.97,-0.802 -54.449,-0.802C-55.073,-0.802 -55.681,-0.737 -56.272,-0.628C-58.034,-7.372 -64.149,-12.357 -71.446,-12.357C-79.318,-12.357 -85.818,-6.556 -86.952,1C-87.183,0.986 -87.411,0.965 -87.645,0.965C-93.859,0.965 -98.897,5.983 -98.938,12.188C-98.962,12.22 -98.988,12.251 -99.013,12.284C-99.164,12.277 -99.313,12.261 -99.467,12.261C-104.654,12.261 -108.859,16.466 -108.859,21.654C-108.859,22.224 -108.801,22.779 -108.703,23.322C-110.187,22.849 -111.764,22.589 -113.403,22.589C-121.943,22.589 -128.866,29.512 -128.866,38.051C-128.866,38.274 -128.842,38.491 -128.832,38.712C-130.015,38.292 -131.282,38.051 -132.608,38.051C-138.848,38.051 -143.904,43.109 -143.904,49.347C-143.904,55.586 -138.848,60.643 -132.608,60.643L-11.895,60.643C-8.636,60.643 -5.709,59.256 -3.646,57.049C-1.396,54.81 0,51.712 0,48.286" style="fill:white;fill-rule:nonzero;"/>
                </g>
            </g>
        </g>
    </g>
</svg>
