<?xml version="1.0" encoding="UTF-8" standalone="no"?>
<!DOCTYPE svg PUBLIC "-//W3C//DTD SVG 1.1//EN" "http://www.w3.org/Graphics/SVG/1.1/DTD/svg11.dtd">
<svg width="100%" height="100%" viewBox="0 0 338 871" version="1.1" xmlns="http://www.w3.org/2000/svg" xmlns:xlink="http://www.w3.org/1999/xlink" xml:space="preserve" xmlns:serif="http://www.serif.com/" style="fill-rule:evenodd;clip-rule:evenodd;stroke-linejoin:round;stroke-miterlimit:2;">
    <g transform="matrix(1,0,0,1,-2463,-1402)">
        <g transform="matrix(0.945226,0,0,0.844318,3020.89,1364.8)">
            <g id="Construction">
                <g transform="matrix(8.05065,0,0,9.01281,-583.609,49.0958)">
                    <path d="M40.49,25.459L40.49,24.929L39.35,24.929L39.35,25.949C39.35,26.258 39.61,26.508 39.92,26.508C40.39,26.508 40.77,26.898 40.77,27.368C40.77,27.838 40.391,28.219 39.92,28.219C39.45,28.219 39.07,27.839 39.07,27.368C39.07,27.048 38.81,26.798 38.5,26.798C38.19,26.798 37.93,27.048 37.93,27.368C37.93,28.458 38.82,29.348 39.92,29.348C41.02,29.348 41.91,28.458 41.91,27.368C41.91,26.469 41.311,25.709 40.49,25.459Z" style="fill:rgb(204,204,204);fill-rule:nonzero;"/>
                    <path d="M39.391,17.259L39.391,13.289L38.261,13.289L38.261,17.269C38.361,17.254 38.442,17.259 39.391,17.259Z" style="fill:rgb(204,204,204);fill-rule:nonzero;"/>
                    <path d="M41.91,13.289L40.77,13.289L40.77,17.259C41.717,17.259 41.797,17.254 41.91,17.268L41.91,13.289Z" style="fill:rgb(204,204,204);fill-rule:nonzero;"/>
                    <g transform="matrix(1,0,0,1,-3.61289,0)">
                        <path d="M7.22,33.139C7.6,33.379 8.13,33.699 8.84,34.119L11.38,34.119C10.27,33.469 9,32.728 8.16,32.238L13.08,29.368L13.08,34.119L14.37,34.119L14.37,1.648C14.37,1.288 14.08,0.998 13.73,0.998L6.58,0.998C6.22,0.998 5.93,1.288 5.93,1.648L5.93,34.119L7.22,34.119L7.22,33.139ZM13.08,27.459C11.91,26.779 9.5,25.379 8.16,24.589L13.08,21.719L13.08,27.459ZM13.08,19.819C11.91,19.139 9.5,17.729 8.16,16.949L13.08,14.078L13.08,19.819ZM13.08,12.169C11.91,11.489 9.5,10.079 8.16,9.299L13.08,6.429L13.08,12.169ZM13.08,2.299L13.08,4.529L9.26,2.299L13.08,2.299ZM7.22,2.608L12.14,5.479L7.22,8.349L7.22,2.608ZM7.22,10.198C8.05,10.728 9.53,11.599 12.14,13.118L7.22,15.988L7.22,10.198ZM7.22,17.839C8.05,18.369 9.53,19.238 12.14,20.769L7.22,23.639L7.22,17.839ZM7.22,25.488C8.05,26.019 9.53,26.888 12.14,28.408L7.22,31.278L7.22,25.488Z" style="fill:rgb(204,204,204);fill-rule:nonzero;"/>
                    </g>
                    <g transform="matrix(-1,0,0,-1,16.6879,68.2279)">
                        <path d="M7.22,33.139C7.6,33.379 8.13,33.699 8.84,34.119L11.38,34.119C10.27,33.469 9,32.728 8.16,32.238L13.08,29.368L13.08,34.119L14.37,34.119L14.37,1.648C14.37,1.288 14.08,0.998 13.73,0.998L6.58,0.998C6.22,0.998 5.93,1.288 5.93,1.648L5.93,34.119L7.22,34.119L7.22,33.139ZM13.08,27.459C11.91,26.779 9.5,25.379 8.16,24.589L13.08,21.719L13.08,27.459ZM13.08,19.819C11.91,19.139 9.5,17.729 8.16,16.949L13.08,14.078L13.08,19.819ZM13.08,12.169C11.91,11.489 9.5,10.079 8.16,9.299L13.08,6.429L13.08,12.169ZM13.08,2.299L13.08,4.529L9.26,2.299L13.08,2.299ZM7.22,2.608L12.14,5.479L7.22,8.349L7.22,2.608ZM7.22,10.198C8.05,10.728 9.53,11.599 12.14,13.118L7.22,15.988L7.22,10.198ZM7.22,17.839C8.05,18.369 9.53,19.238 12.14,20.769L7.22,23.639L7.22,17.839ZM7.22,25.488C8.05,26.019 9.53,26.888 12.14,28.408L7.22,31.278L7.22,25.488Z" style="fill:rgb(204,204,204);fill-rule:nonzero;"/>
                    </g>
                    <g transform="matrix(-1,0,0,-1,16.6879,98.8345)">
                        <path d="M7.22,33.139C7.6,33.379 8.13,33.699 8.84,34.119L11.38,34.119C10.27,33.469 9,32.728 8.16,32.238L13.08,29.368L13.08,34.119L14.37,34.119L14.37,1.648C14.37,1.288 14.08,0.998 13.73,0.998L6.58,0.998C6.22,0.998 5.93,1.288 5.93,1.648L5.93,34.119L7.22,34.119L7.22,33.139ZM13.08,27.459C11.91,26.779 9.5,25.379 8.16,24.589L13.08,21.719L13.08,27.459ZM13.08,19.819C11.91,19.139 9.5,17.729 8.16,16.949L13.08,14.078L13.08,19.819ZM13.08,12.169C11.91,11.489 9.5,10.079 8.16,9.299L13.08,6.429L13.08,12.169ZM13.08,2.299L13.08,4.529L9.26,2.299L13.08,2.299ZM7.22,2.608L12.14,5.479L7.22,8.349L7.22,2.608ZM7.22,10.198C8.05,10.728 9.53,11.599 12.14,13.118L7.22,15.988L7.22,10.198ZM7.22,17.839C8.05,18.369 9.53,19.238 12.14,20.769L7.22,23.639L7.22,17.839ZM7.22,25.488C8.05,26.019 9.53,26.888 12.14,28.408L7.22,31.278L7.22,25.488Z" style="fill:rgb(204,204,204);fill-rule:nonzero;"/>
                    </g>
                    <g transform="matrix(1,0,0,1,-3.60219,0)">
                        <path d="M46.48,5.819L15.37,5.819L15.37,7.109L19.18,7.109L16.99,10.289L15.37,7.939L15.37,10.209L15.91,10.989L15.37,10.989L15.37,12.289L46.48,12.289C46.832,12.289 47.12,11.993 47.12,11.639L47.12,6.469C47.121,6.109 46.83,5.819 46.48,5.819ZM18.08,10.989L20.27,7.819L22.46,10.989L18.08,10.989ZM21.35,7.109L25.73,7.109L23.54,10.289L21.35,7.109ZM24.631,10.989L26.821,7.819L29.011,10.989L24.631,10.989ZM27.9,7.109L32.29,7.109L30.09,10.289L27.9,7.109ZM31.18,10.989L33.371,7.819L35.561,10.989L31.18,10.989ZM34.451,7.109L38.841,7.109L36.64,10.289L34.451,7.109ZM37.73,10.989L39.92,7.819L42.11,10.989L37.73,10.989ZM41.001,7.109L45.391,7.109L43.201,10.289L41.001,7.109ZM45.83,10.989L44.28,10.989L45.83,8.749L45.83,10.989Z" style="fill:rgb(204,204,204);fill-rule:nonzero;"/>
                    </g>
                    <path d="M5.931,35.253C5.931,35.269 5.931,35.28 5.931,35.286C5.931,35.28 5.931,35.269 5.931,35.253Z" style="fill:rgb(204,204,204);fill-rule:nonzero;"/>
                    <path d="M5.931,35.147C5.931,35.177 5.931,35.221 5.931,35.253C5.931,35.231 5.931,35.195 5.931,35.147Z" style="fill:rgb(204,204,204);fill-rule:nonzero;"/>
                    <g transform="matrix(1,0,0,1,-3.60219,46.253)">
                        <path d="M16.424,45.213L14.361,45.213C14.368,37.762 14.37,35.702 14.37,35.238C14.37,35.221 14.37,35.198 14.37,35.17C14.37,35.152 14.371,35.14 14.371,35.132L14.371,35.137L14.371,35.119L5.931,35.119C5.931,35.115 5.93,35.114 5.931,35.119C5.931,35.13 5.931,35.137 5.931,35.147L5.931,35.141C5.931,35.353 5.934,37.044 5.949,45.213L3.88,45.213C3.327,45.213 2.88,45.661 2.88,46.213L2.879,67.531L17.424,67.531L17.424,46.213C17.424,45.661 16.976,45.213 16.424,45.213ZM14.37,35.191L14.37,35.19C14.37,35.19 14.371,35.19 14.37,35.191ZM7.24,43.009L13.06,43.009L13.06,45.209L7.24,45.209L7.24,43.009Z" style="fill:rgb(204,204,204);fill-rule:nonzero;"/>
                    </g>
                    <path d="M41.682,18.26L38.477,18.26C37.836,18.26 37.365,18.851 37.496,19.472L38.257,23.137C38.357,23.598 38.768,23.929 39.238,23.929L40.911,23.929C41.392,23.929 41.792,23.598 41.892,23.137L42.664,19.472C42.794,18.851 42.313,18.26 41.682,18.26ZM38.737,20.096C38.518,20.096 38.34,19.918 38.34,19.699C38.34,19.48 38.518,19.302 38.737,19.302C38.956,19.302 39.134,19.48 39.134,19.699C39.134,19.918 38.956,20.096 38.737,20.096ZM41.422,20.096C41.203,20.096 41.025,19.918 41.025,19.699C41.025,19.48 41.203,19.302 41.422,19.302C41.641,19.302 41.819,19.48 41.819,19.699C41.819,19.918 41.641,20.096 41.422,20.096Z" style="fill:rgb(204,204,204);fill-rule:nonzero;"/>
                </g>
                <g transform="matrix(0.648254,0,0,0.725729,-999.527,-464.348)">
                    <path d="M963.693,936.916L963.137,943.044L945.451,945.878C943.1,944.426 944.289,944.666 942.423,943.433C938.11,940.596 937.773,944.014 935.856,934.009L963.693,936.916ZM965.487,969.524C965.364,980.982 966.455,972.819 959.55,985.755C954.051,983.597 951.533,975.967 951.289,968.65C951.121,963.997 952.38,961.747 950.151,957.943C948.383,954.916 947.219,954.889 945.742,950.846L964.662,950.628C970.161,971.632 965.584,959.833 965.487,969.524ZM1161,1838L1149.67,1838L1149.92,1675L1168.99,1675L1167.81,1632.91L1154,1632.84L1154,1604L1132,1604L1132,1567L1126.74,1567L1126.66,1564.38L1127.38,1557.07L1128,1557.18L1128,1556L1121.19,1556L1121.16,1538.84L1106.94,1539.03C1101.81,1532.3 1098.03,1531.47 1097.42,1526.56L1092.05,1466.5C1090.1,1438.93 1103.91,1460.82 1101.28,1434.29C1100.57,1427.38 1099.72,1420.99 1098.9,1414.18C1097.42,1402.12 1096.62,1400.43 1101.51,1395.92L1099.96,1387.9C1107.35,1384.95 1105.93,1383.06 1104.62,1374.39C1102.44,1359.93 1104.13,1364.24 1109,1361.21C1109.8,1356.17 1107.62,1340.26 1107.13,1334.25C1106.36,1324.56 1107.38,1315.52 1106.46,1306.8C1104.57,1288.85 1100.79,1271.87 1098.83,1254.06C1104.28,1253.92 1105.37,1250.71 1105.61,1247.54C1106.74,1246.73 1108.09,1246.77 1109.61,1246.8C1113.65,1246.9 1118.86,1247 1124.14,1231.07C1129.26,1215.61 1129.45,1194.15 1130.93,1190.76C1132.21,1187.77 1133.62,1187.78 1135.63,1187.79C1139.39,1187.8 1145.25,1187.81 1156.34,1168.37C1166.08,1151.29 1169.15,1149.09 1160.14,1139.49L1176.11,1117.79L1123.85,1089.15C1123.61,1089 1110.02,1112.14 1107.84,1114.71C1106.29,1114.1 1107.45,1114.78 1105.49,1113.64C1100.04,1110.5 1105.9,1111.03 1095.19,1104.29C1087.47,1099.45 1088.87,1100.97 1085.48,1091.82C1081.72,1081.69 1079.28,1066.12 1075.06,1056.95C1072.98,1052.45 1072.32,1053.95 1069.32,1050.71C1064.81,1045.78 1067.14,1042.42 1057.91,1039.95C1053.74,1038.83 1056.29,1040.24 1053.91,1037.89C1053.79,1037.75 1053.65,1037.55 1053.52,1037.43L1046.74,1028.85L1038.62,1003.66C1040.56,1001.63 1042.62,1001.07 1043.11,997.674C1044,991.157 1038.21,979.576 1037.51,972.021C1038.84,971.1 1038.67,971.414 1039.81,970.638C1041.14,969.764 1040.44,970.37 1041.31,969.474C1040.15,965.503 1037.56,964.315 1038.09,960.416C1038.96,953.993 1038.87,956.32 1038.7,950.045C1045.92,949.584 1082.13,948.202 1085.43,946.387L1039.76,942.874L1038.58,935.266C1051.71,930.857 1066.44,923.662 1079.74,918.986C1077.75,918.043 1076.76,918.528 1075.93,918.648L1065.47,921.093C1060.65,922.309 1056.55,923.394 1051.8,924.559C1025.81,930.908 1038.82,927.419 1027.16,921.989C1028.5,918.284 1030.83,916.3 1033.1,913.537L1039.5,906.244C1044,901.082 1048.15,897.668 1051.61,891.637C1047.83,893.186 1043.76,897.137 1040.76,899.825L1020.6,916.444C1018.3,917.484 1010.25,915.257 1007.23,913.971C1005.26,912.567 1004.98,907.604 1004.61,905.227L1000.2,878.795C999.743,877.634 999.499,877.486 999.282,877.222C997.343,882.625 998.263,905.445 997.245,913.657L981.619,917.729C974.524,914.988 954.511,895.971 947.848,893.333C954.681,903.727 968.393,913.875 974.185,922.234C970.477,925.7 970.041,925.529 967.206,930.373L935.688,930.497C938.353,907.335 928.929,892.024 925.587,872.037C923.307,869.325 921.588,854.643 920.86,849.703C919.287,838.922 920.812,833.302 920.498,823.319C919.505,793.498 901.384,792.066 914.587,781.699C914.393,777.92 914.247,778.913 912.673,775.887C922.243,776.44 927.136,772.587 931.279,766.071C930.407,761.177 927.936,760.598 926.409,755.801C928.469,751.925 930.625,753.209 930.576,748.703C930.212,748.315 928.688,747.105 928.613,747.03C925.828,744.294 927.717,744.993 925.876,741.606L909.5,737.293C909.645,737.122 909.864,736.905 909.984,736.809L911.367,735.403C912.527,734.192 911.655,735.256 912.6,734.045C915.12,730.897 916.041,727.043 916.769,722.926C917.979,716.095 918.221,709.746 917.979,702.745C915.701,704.537 915.749,705.966 913.497,708.341L909.742,700.54L908.046,704.584C902.74,701.607 901.07,707.131 894.988,709.672L890.457,707.204C893.461,716.335 888.906,714.737 886.242,721.425C883.699,727.769 887.113,733.489 889.564,736.809C881.009,739.012 871.077,739.859 868.799,747.974C871.974,749.79 874.421,748.63 872.651,754.587C870.593,761.518 860.224,768.155 878.636,773.774C877.205,780.438 881.568,785.841 884.669,790.831L881.228,795.12C882.002,798.582 882.632,797.422 883.263,799.237C884.128,801.675 884.191,801.522 883.947,801.369C883.712,801.223 883.194,801.076 882.827,803.211C882.318,806.289 885.007,808.541 886.145,810.505C881.979,816.004 883.796,819.711 887.091,826.105C891.402,834.438 889.828,834.027 889.198,843.838C889.877,846.818 889.9,846.528 892.056,848.538C892.421,848.875 892.905,849.578 893.002,849.384C893.074,849.24 893.315,849.651 893.461,849.823C889.658,858.349 894.188,854.426 894.432,863.438C894.722,874.871 893.801,885.579 894.405,898.444C894.674,903.578 896.029,909.323 895.522,914.263C897.435,916.541 897.775,921.532 898.889,924.559C902.669,934.661 907.223,940.04 906.906,955.786C904.97,957.435 904.145,957.241 902.401,958.887C900.414,960.753 901.747,960.633 898.84,962.278L891.935,979.215C882.704,1006.93 881.106,1019.77 904.073,1028.78C907.851,1055.12 914.491,1048.45 911.971,1062.48C909.065,1078.76 913.473,1073.38 914.127,1077.16C909.596,1098.75 915.144,1098.21 921.879,1114.42C923.139,1119.41 926.119,1122.8 925.828,1127.57C924.57,1134.84 917.76,1147.83 914.756,1155C912.94,1159.36 911.027,1164.08 909.524,1168.56C906.446,1178.64 901.505,1192.72 909.864,1201.61C913.57,1205.56 919.747,1205.99 925.368,1203.21C924.81,1209.34 926.677,1213.46 924.425,1219.34C921.733,1226.41 918.417,1232.67 915.484,1239.47L912.044,1249.91C909.839,1253.92 912.48,1258.47 913.522,1262.73C914.781,1265.66 916.307,1268.69 916.623,1271.99C917.711,1283.47 920.255,1285.09 921.128,1292.09C921.612,1295.92 921.928,1299.92 922.29,1303.67C922.993,1311.38 923.647,1319.01 924.181,1326.71C925.198,1343.33 925.779,1343.5 920.352,1358.01C917.931,1364.46 917.786,1365.57 920.572,1371.27C923.356,1377 921.491,1379.28 920.741,1385.68C912.6,1415.77 918.391,1426.31 921.249,1449.3C921.928,1454.85 920.909,1455.57 920.86,1460.08C920.838,1465.24 921.274,1465.89 918.124,1468.58C918.076,1472.21 917.033,1477.96 917.614,1480.07C918.417,1482.87 921.418,1486.07 921.371,1489.13C921.322,1491.38 918.947,1494.7 918.149,1497.7C917.202,1501.29 916.888,1504.77 916.163,1508.53C913.691,1521.45 906.884,1522.9 900.584,1530.53C898.84,1532.66 897.013,1535.98 895.367,1539.13L876,1539.32L876,1556L871,1556L871,1567L864,1567L864,1604L840,1604L840,1632.85L828.152,1632.86L828.21,1674.72L851.064,1674.84L853,1721.98L853,1838L833,1838L833,1871L823,1871L823,2121.16L1175,2121.16L1175,1871L1161,1871L1161,1838Z" style="fill:rgb(204,204,204);"/>
                </g>
            </g>
        </g>
    </g>
</svg>
