<?xml version="1.0" encoding="UTF-8" standalone="no"?>
<!DOCTYPE svg PUBLIC "-//W3C//DTD SVG 1.1//EN" "http://www.w3.org/Graphics/SVG/1.1/DTD/svg11.dtd">
<svg width="100%" height="100%" viewBox="0 0 237 413" version="1.1" xmlns="http://www.w3.org/2000/svg" xmlns:xlink="http://www.w3.org/1999/xlink" xml:space="preserve" xmlns:serif="http://www.serif.com/" style="fill-rule:evenodd;clip-rule:evenodd;stroke-linejoin:round;stroke-miterlimit:2;">
    <g transform="matrix(1,0,0,1,-4057,-1853)">
        <g transform="matrix(0.945226,0,0,0.844318,4565.16,1364.8)">
            <g id="traveling-man" transform="matrix(0.0294999,0,0,0.0294999,-403.36,806.05)">
                <g transform="matrix(4.40812,0,0,4.93495,-11812.2,-11923.8)">
                    <path d="M2490.19,4205.91C2031.37,4205.91 1659.43,4155.51 1659.43,4093.34C1659.43,4031.17 2031.37,3980.78 2490.19,3980.78C2949,3980.78 3320.94,4031.17 3320.94,4093.34C3320.94,4155.51 2949,4205.91 2490.19,4205.91Z" style="fill:rgb(79,126,32);fill-rule:nonzero;"/>
                </g>
                <g transform="matrix(4.40812,0,0,4.93495,-11812.2,-11923.8)">
                    <path d="M2548.49,3985.38C2543.27,3999.41 2537.96,4013.97 2538.91,4028.92C2540.65,4056.44 2563.17,4078.4 2587.47,4091.46C2615.48,4106.52 2647.03,4113.44 2678.22,4119.62C2767.67,4137.34 2861.6,4150.16 2948.94,4123.97C2958.28,4121.17 2967.84,4117.72 2974.66,4110.75C2985.38,4099.79 2986.74,4081.88 2980.61,4067.82C2974.48,4053.77 2962.1,4043.25 2948.56,4036.06C2935.02,4028.86 2920.18,4024.56 2905.68,4019.57C2831.12,3993.89 2763.41,3948.58 2711.23,3889.45C2706.28,3883.83 2701.16,3877.88 2694.17,3875.22C2687.51,3872.68 2680.1,3873.5 2673.02,3874.35C2655.49,3876.47 2637.96,3878.58 2620.43,3880.7C2609.36,3882.04 2589.83,3879.93 2583.49,3890.84C2576.13,3903.48 2572.56,3920.69 2567.45,3934.42C2561.13,3951.4 2554.81,3968.39 2548.49,3985.38Z" style="fill:rgb(101,51,50);fill-rule:nonzero;"/>
                </g>
                <g transform="matrix(4.40812,0,0,4.93495,-11812.2,-11923.8)">
                    <path d="M2434.39,3985.38C2439.61,3999.41 2444.92,4013.97 2443.97,4028.92C2442.23,4056.44 2419.71,4078.4 2395.41,4091.46C2367.4,4106.52 2335.85,4113.44 2304.66,4119.62C2215.21,4137.34 2121.28,4150.16 2033.94,4123.97C2024.6,4121.17 2015.04,4117.72 2008.22,4110.75C1997.5,4099.79 1996.14,4081.88 2002.27,4067.82C2008.4,4053.77 2020.79,4043.25 2034.32,4036.06C2047.86,4028.86 2062.7,4024.56 2077.2,4019.57C2151.77,3993.89 2219.47,3948.58 2271.65,3889.45C2276.6,3883.83 2281.72,3877.88 2288.71,3875.22C2295.37,3872.68 2302.78,3873.5 2309.86,3874.35C2327.39,3876.47 2344.92,3878.58 2362.45,3880.7C2373.52,3882.04 2393.05,3879.93 2399.4,3890.84C2406.75,3903.48 2410.32,3920.69 2415.43,3934.42C2421.75,3951.4 2428.07,3968.39 2434.39,3985.38Z" style="fill:rgb(101,51,50);fill-rule:nonzero;"/>
                </g>
                <g transform="matrix(4.40812,0,0,4.93495,-11812.2,-11923.8)">
                    <path d="M2075.67,3146.14C2075.67,3146.14 2189.99,3675 2245.25,3846L2436.42,3846C2436.42,3846 2411.7,3418.71 2422.16,3272.34C2422.16,3272.34 2481,3278.91 2499,3273.31L2499,3146.74L2075.67,3146.14Z" style="fill:rgb(85,71,77);fill-rule:nonzero;"/>
                </g>
                <g transform="matrix(4.40812,0,0,4.93495,-11812.2,-11923.8)">
                    <path d="M2423.1,3911.78L2255.2,3911.78C2240.43,3911.78 2228.45,3899.8 2228.45,3885.03L2228.45,3856.02C2228.45,3841.24 2240.43,3829.27 2255.2,3829.27L2423.1,3829.27C2437.88,3829.27 2449.86,3841.24 2449.86,3856.02L2449.86,3885.03C2449.86,3899.8 2437.88,3911.78 2423.1,3911.78Z" style="fill:rgb(73,64,67);fill-rule:nonzero;"/>
                </g>
                <g transform="matrix(4.40812,0,0,4.93495,-11812.2,-11923.8)">
                    <path d="M2912.38,3146.14C2912.38,3146.14 2797.1,3675 2741.84,3846L2550.67,3846C2550.67,3846 2576.34,3418.71 2565.89,3272.34C2565.89,3272.34 2508,3278.91 2490,3273.31L2490,3146.74L2912.38,3146.14Z" style="fill:rgb(85,71,77);fill-rule:nonzero;"/>
                </g>
                <g transform="matrix(4.40812,0,0,4.93495,-11812.2,-11923.8)">
                    <path d="M2563.99,3911.78L2731.89,3911.78C2746.66,3911.78 2758.64,3899.8 2758.64,3885.03L2758.64,3856.02C2758.64,3841.24 2746.66,3829.27 2731.89,3829.27L2563.99,3829.27C2549.21,3829.27 2537.23,3841.24 2537.23,3856.02L2537.23,3885.03C2537.23,3899.8 2549.21,3911.78 2563.99,3911.78Z" style="fill:rgb(73,64,67);fill-rule:nonzero;"/>
                </g>
                <g transform="matrix(33.3007,7.09543,-5.66135,33.3007,18544.1,-24334.2)">
                    <g transform="matrix(1.29572,-5.87279e-17,-6.57467e-17,1.45057,-5860,-2172.56)">
                        <path d="M4307.69,2148.72C4307.69,2143.76 4303.66,2139.73 4298.7,2139.73L4215.63,2139.73C4210.66,2139.73 4206.63,2143.76 4206.63,2148.72L4206.63,2190.66C4206.63,2195.63 4210.66,2199.66 4215.63,2199.66L4298.7,2199.66C4303.66,2199.66 4307.69,2195.63 4307.69,2190.66L4307.69,2148.72Z" style="fill:rgb(144,79,14);"/>
                    </g>
                    <g transform="matrix(0.58672,-0.125013,0.0997466,0.58672,-212.714,369.933)">
                        <g transform="matrix(1.03135,0.263921,-0.235746,1.15461,-4090.42,-2773.56)">
                            <path d="M4184.36,2298.89L4188.16,2301.65L4192.85,2301.65L4194.3,2306.11L4198.09,2308.86L4196.64,2313.33L4198.09,2317.79L4194.3,2320.54L4192.85,2325L4188.16,2325L4184.36,2327.76L4180.57,2325L4175.88,2325L4174.43,2320.54L4170.64,2317.79L4172.08,2313.33L4170.64,2308.86L4174.43,2306.11L4175.88,2301.65L4180.57,2301.65L4184.36,2298.89Z" style="fill:rgb(255,153,102);"/>
                        </g>
                        <g transform="matrix(1.03135,0.263921,-0.235746,1.15461,-4144.94,-2620.45)">
                            <circle cx="4205.52" cy="2175.75" r="8.684" style="fill:rgb(241,194,170);"/>
                        </g>
                    </g>
                    <g transform="matrix(0.920787,0.583228,-0.520966,1.03083,-3057.14,-3726.68)">
                        <path d="M4215.08,2193.51L4219.07,2196.41L4217.62,2198.4L4219.96,2199.16L4218.44,2203.85L4216.1,2203.09L4216.1,2205.55L4211.17,2205.55L4211.17,2203.09L4208.83,2203.85L4207.3,2199.16L4209.65,2198.4L4208.2,2196.41L4212.18,2193.51L4213.63,2195.51L4215.08,2193.51Z" style="fill:rgb(208,135,99);"/>
                    </g>
                    <g transform="matrix(0.388146,8.74138e-18,7.90525e-18,0.283527,-1993.81,317.207)">
                        <path d="M4206,2102.62L4206.78,2102.46L4207.4,2102.36L4208.09,2102.25L4208.87,2102.18L4209.57,2102.14L4210.14,2102.13L4304.16,2102.13L4304.74,2102.14L4305.46,2102.18L4306.15,2102.25L4306.91,2102.35L4307.64,2102.48L4308.34,2102.63L4309.04,2102.81L4309.6,2102.98L4310.31,2103.2L4311.16,2103.53L4311.79,2103.79L4312.34,2104.04L4313.05,2104.39L4313.75,2104.77L4314.45,2105.17L4315.06,2105.57L4315.68,2105.97L4316.28,2106.41L4316.82,2106.82L4317.52,2107.39L4318.07,2107.86L4318.59,2108.33L4319.32,2109.02L4319.88,2109.59L4320.27,2110.01L4320.92,2110.73L4321.51,2111.43L4321.94,2111.96L4322.56,2112.75L4323.01,2113.38L4323.41,2113.94L4324.02,2114.86L4324.44,2115.52L4324.85,2116.19L4325.42,2117.17L4325.77,2117.82L4326.11,2118.46L4326.65,2119.52L4327.06,2120.39L4327.36,2121.07L4327.75,2121.97L4328.1,2122.84L4328.45,2123.72L4328.87,2124.89L4329.1,2125.55L4329.41,2126.49L4329.76,2127.67L4329.95,2128.32L4330.28,2129.53L4330.72,2131.38L4330.97,2132.58L4331.15,2133.53L4331.32,2134.47L4331.47,2135.41L4331.65,2136.62L4331.8,2137.82L4331.9,2138.76L4332.01,2139.97L4332.09,2141.17L4332.13,2141.83L4332.19,2143L4332.21,2144.2L4332.22,2144.97L4332.22,2194.5L4332.21,2195.14L4332.19,2196.14L4332.14,2197.41L4332.08,2198.43L4332,2199.46L4331.91,2200.53L4331.76,2201.85L4331.63,2202.88L4331.52,2203.66L4331.35,2204.75L4331.16,2205.83L4330.95,2206.91L4330.72,2207.99L4330.47,2209.05L4330.26,2209.9L4330,2210.88L4329.7,2211.93L4329.47,2212.7L4329.14,2213.72L4328.81,2214.66L4328.49,2215.55L4328.08,2216.61L4327.76,2217.4L4327.39,2218.26L4327,2219.11L4326.65,2219.86L4326.16,2220.83L4325.76,2221.58L4325.33,2222.37L4324.92,2223.07L4324.46,2223.83L4323.98,2224.58L4323.52,2225.28L4322.9,2226.16L4322.52,2226.67L4322.02,2227.33L4321.43,2228.05L4320.91,2228.66L4320.31,2229.33L4319.82,2229.85L4319.33,2230.34L4318.71,2230.95L4318.01,2231.58L4317.5,2232.01L4316.96,2232.45L4316.28,2232.97L4315.64,2233.43L4315.03,2233.84L4314.34,2234.27L4313.73,2234.62L4313.14,2234.95L4312.44,2235.3L4311.73,2235.62L4311.03,2235.91L4310.41,2236.14L4309.72,2236.37L4309.01,2236.58L4308.31,2236.76L4307.62,2236.91L4306.93,2237.03L4306.15,2237.14L4305.45,2237.2L4304.79,2237.24L4304.21,2237.25L4210.08,2237.25L4209.5,2237.24L4208.82,2237.2L4208.18,2237.13L4207.4,2237.03L4206.63,2236.89L4205.98,2236.75L4205.43,2236.61L4204.72,2236.41L4203.87,2236.12L4203.24,2235.88L4202.52,2235.59L4201.9,2235.3L4201.36,2235.03L4200.57,2234.62L4199.88,2234.21L4199.26,2233.82L4198.65,2233.4L4198.04,2232.97L4197.5,2232.56L4196.9,2232.08L4196.15,2231.44L4195.63,2230.96L4195.11,2230.47L4194.55,2229.9L4193.94,2229.26L4193.29,2228.53L4192.81,2227.95L4192.38,2227.43L4191.88,2226.77L4191.31,2226.01L4190.81,2225.28L4190.41,2224.69L4189.88,2223.87L4189.37,2223.02L4189.01,2222.39L4188.55,2221.57L4188.11,2220.72L4187.78,2220.07L4187.36,2219.2L4186.86,2218.1L4186.5,2217.24L4186.22,2216.55L4185.86,2215.62L4185.54,2214.73L4185.22,2213.83L4184.92,2212.88L4184.63,2211.96L4184.3,2210.81L4184.06,2209.87L4183.82,2208.93L4183.55,2207.73L4183.35,2206.78L4183.22,2206.11L4183,2204.91L4182.81,2203.7L4182.68,2202.76L4182.53,2201.56L4182.43,2200.62L4182.34,2199.68L4182.25,2198.48L4182.18,2197.29L4182.13,2196.11L4182.11,2195.18L4182.1,2194.41L4182.1,2145.14L4182.11,2144.24L4182.14,2142.98L4182.19,2141.97L4182.24,2140.95L4182.32,2139.93L4182.42,2138.86L4182.53,2137.78L4182.66,2136.75L4182.84,2135.47L4183.02,2134.39L4183.17,2133.55L4183.37,2132.47L4183.61,2131.4L4183.8,2130.55L4184.06,2129.49L4184.34,2128.43L4184.58,2127.59L4184.9,2126.56L4185.23,2125.53L4185.51,2124.72L4185.84,2123.83L4186.17,2122.95L4186.56,2121.99L4186.94,2121.12L4187.32,2120.28L4187.79,2119.28L4188.09,2118.7L4188.51,2117.88L4189,2117.01L4189.4,2116.31L4189.86,2115.55L4190.39,2114.72L4190.88,2114L4191.3,2113.4L4191.8,2112.72L4192.37,2111.97L4192.89,2111.34L4193.35,2110.79L4193.95,2110.12L4194.56,2109.47L4195.05,2108.98L4195.61,2108.43L4196.27,2107.85L4196.77,2107.41L4197.41,2106.89L4198.09,2106.38L4198.68,2105.95L4199.29,2105.55L4199.95,2105.13L4200.57,2104.77L4201.21,2104.42L4201.91,2104.07L4202.6,2103.76L4203.29,2103.48L4203.9,2103.25L4204.61,2103.01L4205.31,2102.8L4206,2102.62ZM4209.55,2139.84L4209.46,2139.87L4209.37,2139.9L4209.28,2139.94L4209.19,2139.98L4209.11,2140.02L4209.03,2140.07L4208.94,2140.11L4208.86,2140.16L4208.78,2140.22L4208.7,2140.28L4208.62,2140.34L4208.54,2140.4L4208.47,2140.47L4208.39,2140.53L4208.32,2140.61L4208.24,2140.68L4208.17,2140.76L4208.1,2140.84L4208.03,2140.92L4207.96,2141L4207.89,2141.09L4207.83,2141.18L4207.77,2141.27L4207.7,2141.36L4207.64,2141.46L4207.58,2141.56L4207.52,2141.66L4207.47,2141.76L4207.41,2141.86L4207.36,2141.97L4207.31,2142.08L4207.26,2142.19L4207.21,2142.3L4207.16,2142.42L4207.12,2142.53L4207.07,2142.65L4207.03,2142.77L4206.99,2142.89L4206.96,2143.01L4206.92,2143.14L4206.89,2143.26L4206.86,2143.39L4206.83,2143.52L4206.8,2143.65L4206.77,2143.78L4206.75,2143.92L4206.73,2144.05L4206.71,2144.19L4206.69,2144.32L4206.68,2144.46L4206.66,2144.6L4206.65,2144.74L4206.65,2144.88L4206.64,2145.02L4206.64,2145.17L4206.63,2145.31L4206.63,2194.07L4206.64,2194.21L4206.64,2194.36L4206.65,2194.5L4206.65,2194.64L4206.66,2194.78L4206.68,2194.92L4206.69,2195.06L4206.71,2195.2L4206.73,2195.33L4206.75,2195.47L4206.77,2195.6L4206.8,2195.73L4206.83,2195.86L4206.86,2195.99L4206.89,2196.12L4206.92,2196.24L4206.96,2196.37L4206.99,2196.49L4207.03,2196.61L4207.07,2196.73L4207.12,2196.85L4207.16,2196.97L4207.21,2197.08L4207.26,2197.19L4207.31,2197.3L4207.36,2197.41L4207.41,2197.52L4207.47,2197.62L4207.52,2197.72L4207.58,2197.83L4207.64,2197.92L4207.7,2198.02L4207.77,2198.11L4207.83,2198.2L4207.89,2198.29L4207.96,2198.38L4208.03,2198.46L4208.1,2198.55L4208.17,2198.62L4208.24,2198.7L4208.32,2198.78L4208.39,2198.85L4208.47,2198.91L4208.54,2198.98L4208.62,2199.04L4208.7,2199.1L4208.78,2199.16L4208.86,2199.22L4208.94,2199.27L4209.03,2199.32L4209.11,2199.36L4209.19,2199.4L4209.28,2199.44L4209.37,2199.48L4209.46,2199.51L4209.55,2199.54L4209.63,2199.57L4209.72,2199.59L4209.82,2199.61L4209.91,2199.63L4210,2199.64L4210.09,2199.65L4210.19,2199.65L4210.28,2199.66L4304.04,2199.66L4304.14,2199.65L4304.23,2199.65L4304.32,2199.64L4304.42,2199.63L4304.51,2199.61L4304.6,2199.59L4304.69,2199.57L4304.78,2199.54L4304.87,2199.51L4304.95,2199.48L4305.04,2199.44L4305.13,2199.4L4305.21,2199.36L4305.3,2199.32L4305.38,2199.27L4305.46,2199.22L4305.54,2199.16L4305.62,2199.1L4305.7,2199.04L4305.78,2198.98L4305.86,2198.91L4305.93,2198.85L4306.01,2198.78L4306.08,2198.7L4306.15,2198.62L4306.22,2198.55L4306.29,2198.46L4306.36,2198.38L4306.43,2198.29L4306.49,2198.2L4306.56,2198.11L4306.62,2198.02L4306.68,2197.92L4306.74,2197.83L4306.8,2197.72L4306.86,2197.62L4306.91,2197.52L4306.96,2197.41L4307.02,2197.3L4307.07,2197.19L4307.11,2197.08L4307.16,2196.97L4307.2,2196.85L4307.25,2196.73L4307.29,2196.61L4307.33,2196.49L4307.37,2196.37L4307.4,2196.24L4307.44,2196.12L4307.47,2195.99L4307.5,2195.86L4307.52,2195.73L4307.55,2195.6L4307.57,2195.47L4307.6,2195.33L4307.61,2195.2L4307.63,2195.06L4307.65,2194.92L4307.66,2194.78L4307.67,2194.64L4307.68,2194.5L4307.68,2194.36L4307.69,2194.21L4307.69,2194.07L4307.69,2145.31L4307.69,2145.17L4307.68,2145.02L4307.68,2144.88L4307.67,2144.74L4307.66,2144.6L4307.65,2144.46L4307.63,2144.32L4307.61,2144.19L4307.6,2144.05L4307.57,2143.92L4307.55,2143.78L4307.52,2143.65L4307.5,2143.52L4307.47,2143.39L4307.44,2143.26L4307.4,2143.14L4307.37,2143.01L4307.33,2142.89L4307.29,2142.77L4307.25,2142.65L4307.2,2142.53L4307.16,2142.42L4307.11,2142.3L4307.07,2142.19L4307.02,2142.08L4306.96,2141.97L4306.91,2141.86L4306.86,2141.76L4306.8,2141.66L4306.74,2141.56L4306.68,2141.46L4306.62,2141.36L4306.56,2141.27L4306.49,2141.18L4306.43,2141.09L4306.36,2141L4306.29,2140.92L4306.22,2140.84L4306.15,2140.76L4306.08,2140.68L4306.01,2140.61L4305.93,2140.53L4305.86,2140.47L4305.78,2140.4L4305.7,2140.34L4305.62,2140.28L4305.54,2140.22L4305.46,2140.16L4305.38,2140.11L4305.3,2140.07L4305.21,2140.02L4305.13,2139.98L4305.04,2139.94L4304.95,2139.9L4304.87,2139.87L4304.78,2139.84L4304.69,2139.81L4304.6,2139.79L4304.51,2139.77L4304.42,2139.76L4304.32,2139.74L4304.23,2139.73L4304.14,2139.73L4304.04,2139.73L4210.28,2139.73L4210.19,2139.73L4210.09,2139.73L4210,2139.74L4209.91,2139.76L4209.82,2139.77L4209.72,2139.79L4209.63,2139.81L4209.55,2139.84Z" style="fill:rgb(144,79,14);"/>
                    </g>
                </g>
                <g transform="matrix(4.40812,0,0,4.93495,-11812.2,-11923.8)">
                    <path d="M3118.17,2515.23C3090.23,2435.6 3042.9,2361.55 2975.91,2310.24C2993.52,2280.61 3018.51,2255.4 3047.98,2237.55C3094.13,2209.52 3112.48,2245.45 3136.5,2278.94C3163.14,2316.12 3186.79,2355.33 3206.93,2396.42C3246.71,2477.48 3273.08,2565.11 3284.63,2654.64C3291.14,2705.02 3292.97,2755.99 3289.81,2806.69C3284.92,2885.66 3268.6,2963.28 3251.55,3040.59C3251.55,3040.59 3267.17,3135.71 3254.3,3163.99C3254.3,3163.99 3244.3,3242.81 3189.38,3268.35C3189.38,3268.35 3140.67,3296.49 3137.45,3266.43C3137.45,3266.43 3068.22,3284.74 3076.1,3231.46C3076.1,3231.46 3001.32,3250.75 3018.53,3179.68C3018.53,3179.68 2962.11,3181.93 2994.52,3126C2994.52,3126 3002.48,3113.3 3006.34,3072.87C3006.34,3072.87 3012.77,3026.62 3064.44,3014.35C3064.44,3014.35 3070.36,3003.21 3107.12,2957.3C3117.17,2944.39 3125.44,2930.1 3131.89,2915.23C3152.11,2868.07 3155.64,2815.6 3155.54,2764.32C3155.43,2679.96 3146.05,2594.85 3118.17,2515.23Z" style="fill:rgb(254,209,157);fill-rule:nonzero;"/>
                </g>
                <g transform="matrix(4.40812,0,0,4.93495,-11812.2,-11923.8)">
                    <path d="M3089.59,2553.85C3024.48,2472.04 3005.6,2478.85 2938.62,2427.54C2956.23,2397.91 3032.4,2268.28 3047.98,2237.55C3078.76,2176.81 3091.54,2199.92 3147.57,2231.01C3186.47,2252.6 3264.27,2335.93 3284.4,2377.02C3324.19,2458.08 3338.13,2515.65 3349.68,2605.18C3356.2,2655.56 3355.04,2748.41 3346.01,2798.4C3331.14,2880.82 3302.4,2969.61 3270.15,3030.71C3270.15,3030.71 3115.09,2988.41 3061.05,2975.16C3061.05,2975.16 3116.61,2846.5 3125.26,2791.89C3138.45,2708.57 3142.13,2619.85 3089.59,2553.85Z" style="fill:rgb(96,96,97);fill-rule:nonzero;"/>
                </g>
                <g transform="matrix(4.40812,0,0,4.93495,-11812.2,-11923.8)">
                    <path d="M3068.64,2229.74L3047.03,2460.65L2949.22,2423.56L2878.1,2961.48C2878.1,2961.48 2780.91,3015.73 2507.54,3010.59C2256.65,3011.89 2111.35,2961.48 2111.35,2961.48L2053.64,2423.56L1955.83,2460.65L1807.83,2305.53L2160.1,2078.12L2169.75,2072L2170.44,2072L2470,2070.98L2470,2070.76L2501.47,2070.87L2533,2070.76L2533,2070.98L2832.42,2072L2833.05,2072L2838.12,2075.2L3068.64,2229.74Z" style="fill:white;fill-rule:nonzero;"/>
                </g>
                <g transform="matrix(4.40812,0,0,4.93495,-11812.2,-11923.8)">
                    <path d="M3176.9,2252.29L3096.81,2513.5L2990.08,2466.66L2912.47,3145.97C2912.47,3145.97 2806.42,3214.48 2508.09,3207.99C2234.32,3209.63 2075.75,3145.97 2075.75,3145.97L2012.78,2466.66L1906.05,2513.5L1829.71,2248.8L2128.95,2030.07L2139.48,2022L2140.23,2022L2303.33,2114.43L2499.15,2727.06L2696.19,2108.84L2862.62,2022L2863.31,2022L2868.85,2026.38L3176.9,2252.29Z" style="fill:rgb(96,96,97);fill-rule:nonzero;"/>
                </g>
                <g transform="matrix(22.5212,38.7595,-30.9257,22.5212,38632.8,4160.28)">
                    <g transform="matrix(1.05795,0,0,1.18439,-4829.7,-1616.46)">
                        <rect x="4031.97" y="2139.99" width="32.047" height="40.922" style="fill:rgb(0,0,102);"/>
                    </g>
                    <g transform="matrix(0.868303,0,0,0.972077,-4066.72,-1140.61)">
                        <text x="4040.02px" y="2130.01px" style="font-family:'ArialRoundedMTBold', 'Arial Rounded MT Bold', sans-serif;font-size:5px;fill:white;">P<tspan x="4042.91px 4046.51px " y="2130.01px 2130.01px ">AS</tspan>SPOR<tspan x="4063.82px " y="2130.01px ">T</tspan></text>
                    </g>
                </g>
                <g transform="matrix(4.40812,0,0,4.93495,-11812.2,-11923.8)">
                    <path d="M1884.76,2515.23C1912.71,2435.6 1902.76,2393.44 1969.75,2342.13C1967.26,2337.96 1965.43,2327.98 1962.34,2317.49C1953.96,2289.09 1950.25,2273.31 1924.94,2257.98C1878.78,2229.95 1890.46,2245.45 1866.44,2278.94C1839.8,2316.12 1816.14,2355.33 1796.01,2396.42C1756.22,2477.48 1729.86,2565.11 1718.31,2654.64C1711.79,2705.02 1709.97,2755.99 1713.13,2806.69C1718.01,2885.66 1734.33,2963.28 1751.39,3040.59C1751.39,3040.59 1735.77,3135.71 1748.63,3163.99C1748.63,3163.99 1758.64,3242.81 1813.56,3268.35C1813.56,3268.35 1862.27,3296.49 1865.49,3266.43C1865.49,3266.43 1934.72,3284.74 1926.83,3231.46C1926.83,3231.46 2001.61,3250.75 1984.4,3179.68C1984.4,3179.68 2040.82,3181.93 2008.42,3126C2008.42,3126 2000.46,3113.3 1996.6,3072.87C1996.6,3072.87 1990.16,3026.62 1938.49,3014.35C1938.49,3014.35 1932.58,3003.21 1895.81,2957.3C1885.77,2944.39 1877.5,2930.1 1871.05,2915.23C1850.82,2868.07 1847.3,2815.6 1847.4,2764.32C1847.51,2679.96 1856.89,2594.85 1884.76,2515.23Z" style="fill:rgb(254,209,157);fill-rule:nonzero;"/>
                </g>
                <g transform="matrix(4.40812,0,0,4.93495,-11812.2,-11923.8)">
                    <path d="M2500.66,2726.89L2500.13,2726.3L2500.37,2726.03L2500.66,2726.89Z" style="fill:rgb(77,78,78);fill-rule:nonzero;"/>
                </g>
                <g transform="matrix(4.40812,0,0,4.93495,-11812.2,-11923.8)">
                    <path d="M2499.5,2725.6L2499.48,2725.58L2499.53,2725.51L2499.5,2725.6Z" style="fill:rgb(205,204,204);fill-rule:nonzero;"/>
                </g>
                <g transform="matrix(4.40812,0,0,4.93495,-11812.2,-11923.8)">
                    <path d="M2500.06,2726.22L2499.99,2726.15L2500.15,2725.97L2500.06,2726.22Z" style="fill:rgb(77,78,78);fill-rule:nonzero;"/>
                </g>
                <g transform="matrix(4.40812,0,0,4.93495,-11812.2,-11923.8)">
                    <path d="M2125.33,2032.72L2139.28,2021.5C2139.43,2021.67 2139.59,2021.83 2139.74,2022L2139.48,2022L2128.95,2030.06C2128.96,2030.07 2128.96,2030.06 2128.96,2030.07L2128.95,2030.07L2125.33,2032.72Z" style="fill:rgb(91,148,140);fill-rule:nonzero;"/>
                </g>
                <g transform="matrix(4.40812,0,0,4.93495,-11812.2,-11923.8)">
                    <path d="M2450.8,2671.74L2154.11,2343.61L2161.43,2337.3L2450.8,2671.74ZM2192.91,2310.17L2210.18,2295.29L2124.21,2253.47L2121.71,2035.63L2125.33,2032.72L2128.95,2030.07L2128.96,2030.07C2130.97,2032.42 2133.01,2034.74 2135.09,2037.04L2132.92,2245.84L2217.95,2289.53L2192.91,2310.17Z" style="fill:rgb(77,78,78);fill-rule:nonzero;"/>
                </g>
                <g transform="matrix(4.40812,0,0,4.93495,-11812.2,-11923.8)">
                    <path d="M2499.98,2726.46L2500.06,2726.22L2500.13,2726.3L2499.98,2726.46Z" style="fill:rgb(77,78,78);fill-rule:nonzero;"/>
                </g>
                <g transform="matrix(4.40812,0,0,4.93495,-11812.2,-11923.8)">
                    <path d="M2500.37,2726.03L2500.29,2725.81L2837.45,2336.61L2780.34,2289.53L2865.37,2245.84L2863.16,2033.06C2864.97,2030.99 2866.74,2028.91 2868.49,2026.81L2878.93,2035.21L2876.43,2253.05L2790.47,2294.86L2846.54,2343.19L2500.37,2726.03Z" style="fill:rgb(77,78,78);fill-rule:nonzero;"/>
                </g>
                <g transform="matrix(4.40812,0,0,4.93495,-11812.2,-11923.8)">
                    <path d="M2500.13,2726.3L2500.06,2726.22L2500.15,2725.97L2500.29,2725.81L2500.37,2726.03L2500.13,2726.3Z" style="fill:rgb(62,62,62);fill-rule:nonzero;"/>
                </g>
                <g transform="matrix(4.40812,0,0,4.93495,-11812.2,-11923.8)">
                    <path d="M2498,2727.42L2613.35,2583.92L2538.87,2306.34L2580.43,2216.23L2498,2156.32L2498,2155.08L2497,2155.7L2496,2155.08L2496,2156.32L2413.89,2216.23L2455.66,2306.34L2380.94,2583.92L2496,2727.42L2496,2729.55L2497,2728.48L2498,2729.55L2498,2727.42Z" style="fill:rgb(190,32,47);fill-rule:nonzero;"/>
                </g>
                <g transform="matrix(4.40812,0,0,4.93495,-11812.2,-11923.8)">
                    <path d="M2730.75,2024.62L2674.5,2343.78L2497.94,2172.25L2730.75,2024.62Z" style="fill:rgb(233,230,231);fill-rule:nonzero;"/>
                </g>
                <g transform="matrix(4.40812,0,0,4.93495,-11812.2,-11923.8)">
                    <path d="M2263.95,2024.62L2324.72,2339.38L2496.72,2172.25L2263.95,2024.62Z" style="fill:rgb(233,230,231);fill-rule:nonzero;"/>
                </g>
                <g transform="matrix(4.40812,0,0,4.93495,-11812.2,-11923.8)">
                    <path d="M2246.52,1942.39L2135.18,2028L2132.92,2245.84L2217.95,2289.53L2160.84,2336.61L2498.93,2727.37L2246.52,1942.39Z" style="fill:rgb(122,123,123);fill-rule:nonzero;"/>
                </g>
                <g transform="matrix(4.40812,0,0,4.93495,-11812.2,-11923.8)">
                    <path d="M2751.77,1942.39L2863.11,2028L2865.37,2245.84L2780.34,2289.53L2837.45,2336.61L2498.93,2727.37L2751.77,1942.39Z" style="fill:rgb(122,123,123);fill-rule:nonzero;"/>
                </g>
                <g transform="matrix(4.40812,0,0,4.93495,-11812.2,-11923.8)">
                    <path d="M2497.36,2188.86C2491.59,2188.86 2485.98,2188.55 2480.53,2187.98L2496.05,2172.9C2496.92,2172.93 2497.79,2172.95 2498.67,2172.96L2514.13,2187.99C2508.7,2188.55 2503.1,2188.86 2497.36,2188.86Z" style="fill:rgb(153,27,38);fill-rule:nonzero;"/>
                </g>
                <g transform="matrix(4.40812,0,0,4.93495,-11812.2,-11923.8)">
                    <path d="M2128.96,2030.07C2128.96,2030.06 2128.96,2030.07 2128.95,2030.06L2139.48,2022L2128.96,2030.07Z" style="fill:rgb(73,119,112);fill-rule:nonzero;"/>
                </g>
                <g transform="matrix(4.40812,0,0,4.93495,-11812.2,-11923.8)">
                    <path d="M2135.09,2037.04C2133.01,2034.74 2130.97,2032.42 2128.96,2030.07L2139.48,2022L2139.74,2022C2139.86,2022.14 2140,2022.28 2140.12,2022.42C2140.44,2022.77 2140.76,2023.12 2141.08,2023.46L2135.18,2028L2135.09,2037.04Z" style="fill:rgb(62,62,62);fill-rule:nonzero;"/>
                </g>
                <g transform="matrix(4.40812,0,0,4.93495,-11812.2,-11923.8)">
                    <path d="M2868.49,2026.81L2862.85,2022.27C2862.94,2022.18 2863.02,2022.09 2863.1,2022L2863.31,2022L2868.85,2026.38C2868.73,2026.52 2868.61,2026.67 2868.49,2026.81Z" style="fill:rgb(77,78,78);fill-rule:nonzero;"/>
                </g>
                <g transform="matrix(4.40812,0,0,4.93495,-11812.2,-11923.8)">
                    <path d="M2863.16,2033.06L2863.11,2028L2859.86,2025.5C2860.82,2024.48 2861.77,2023.46 2862.72,2022.42C2862.76,2022.37 2862.81,2022.32 2862.85,2022.27L2868.49,2026.81C2866.74,2028.91 2864.97,2030.99 2863.16,2033.06Z" style="fill:rgb(62,62,62);fill-rule:nonzero;"/>
                </g>
                <g transform="matrix(4.40812,0,0,4.93495,-11812.2,-11923.8)">
                    <path d="M2514.13,2187.99L2498.67,2172.96C2499.58,2172.98 2500.5,2172.99 2501.42,2172.99C2569.73,2172.99 2617.34,2129.22 2617.34,2129.22C2643.88,2129.22 2669.7,2126.16 2694.44,2120.39L2689.25,2136.52C2664.85,2142.14 2639.4,2145.12 2613.26,2145.12C2613.26,2145.12 2573.28,2181.81 2514.13,2187.99Z" style="fill:rgb(186,184,186);fill-rule:nonzero;"/>
                </g>
                <g transform="matrix(4.40812,0,0,4.93495,-11812.2,-11923.8)">
                    <path d="M2480.53,2187.98C2421.36,2181.8 2381.46,2145.2 2381.46,2145.2C2356.66,2145.2 2332.48,2142.51 2309.23,2137.43L2303.36,2119.17C2329.63,2125.73 2357.17,2129.22 2385.51,2129.22C2385.51,2129.22 2430.69,2170.7 2496.05,2172.9L2480.53,2187.98Z" style="fill:rgb(186,184,186);fill-rule:nonzero;"/>
                </g>
                <g transform="matrix(4.40812,0,0,4.93495,-11812.2,-11923.8)">
                    <path d="M2309.23,2137.43C2240.43,2122.39 2179.76,2086.38 2135.09,2037.04L2135.18,2028L2141.08,2023.46C2183.38,2069.32 2239.66,2103.25 2303.36,2119.17L2309.23,2137.43Z" style="fill:rgb(98,99,99);fill-rule:nonzero;"/>
                </g>
                <g transform="matrix(4.40812,0,0,4.93495,-11812.2,-11923.8)">
                    <path d="M2689.25,2136.52L2694.44,2120.39C2759.28,2105.27 2816.66,2071.53 2859.86,2025.5L2863.11,2028L2863.16,2033.06C2818.98,2083.55 2758.32,2120.61 2689.25,2136.52Z" style="fill:rgb(98,99,99);fill-rule:nonzero;"/>
                </g>
                <g transform="matrix(4.40812,0,0,4.93495,-11812.2,-11923.8)">
                    <path d="M2943,1428.03L2943,1819.76C2943,1847.79 2938.85,1875.07 2931.39,1900.92C2918.26,1946.39 2894.44,1987.82 2862.72,2022.42C2802.96,2087.79 2714.98,2129.22 2617.34,2129.22C2617.34,2129.22 2569.73,2172.99 2501.42,2172.99C2433.18,2172.99 2385.51,2129.22 2385.51,2129.22C2287.94,2129.22 2199.89,2087.79 2140.12,2022.42C2090.34,1968.06 2060,1897.09 2060,1819.76L2060,1428.03C2060,1406.08 2062.58,1384.83 2067.16,1364.18C2098.41,1224.42 2229.67,1119 2385.5,1119L2617.29,1119C2796.23,1119 2943,1257.84 2943,1428.03Z" style="fill:rgb(254,209,157);fill-rule:nonzero;"/>
                </g>
                <g transform="matrix(4.40812,0,0,4.93495,-11812.2,-11923.8)">
                    <path d="M2689.89,2005.71C2673.96,1962.64 2633.46,1911.1 2533.19,1885.32C2533.19,1885.32 2386.09,1840.54 2317.16,1996.8C2314.34,2002.88 2311.77,2009.3 2309.38,2015.99C2309.38,2015.99 2480.71,1933.02 2698.53,2076.26C2698.53,2076.26 2704.18,2044.41 2689.89,2005.71Z" style="fill:white;fill-rule:nonzero;"/>
                </g>
                <g transform="matrix(4.40812,0,0,4.93495,-11812.2,-11923.8)">
                    <path d="M2695.93,2070.39C2696.8,2059.94 2697,2035.17 2687,2006.89L2687,2006.9C2672,1967.28 2633.52,1914.6 2532.35,1888.59C2526.49,1886.8 2387.24,1846.59 2320.34,1998.25C2318.67,2001.86 2317.08,2005.68 2315.46,2009.8C2350.7,1996.22 2506.46,1948.21 2695.93,2070.39ZM2533.99,1882.01C2637.89,1908.71 2678,1963.37 2693,2004.52C2708,2043.64 2702.09,2075.52 2701.85,2076.86L2700.96,2081.98L2696.64,2079.12C2483.1,1938.7 2312.55,2018.25 2310.86,2019.06L2303.33,2022.7L2306.15,2014.83C2308.75,2007.6 2311.34,2001.23 2314.04,1995.42C2358.59,1894.42 2436.11,1876.22 2486.23,1876.22C2514.12,1876.22 2533.51,1881.86 2533.99,1882.01Z" style="fill:rgb(245,208,184);fill-rule:nonzero;"/>
                </g>
                <g transform="matrix(4.40812,0,0,4.93495,-11812.2,-11923.8)">
                    <path d="M2689.89,2005.71C2673.96,1962.64 2633.46,1911.1 2533.19,1885.32C2533.19,1885.32 2386.09,1840.54 2317.16,1996.8C2389.17,1957.08 2543.72,1897.22 2689.89,2005.71Z" style="fill:rgb(199,60,42);fill-rule:nonzero;"/>
                </g>
                <g transform="matrix(4.40812,0,0,4.93495,-11812.2,-11923.8)">
                    <path d="M2956.38,1816.91L2945.19,1829.45C2945.19,1829.45 2941.11,1627.08 2927.93,1576.34C2927.93,1576.34 2897.94,1462.1 2851.48,1439.69C2851.48,1439.69 2892.34,1298.99 2785.58,1252.29C2785.58,1252.29 2656.08,1383.03 2444.54,1382.1C2444.54,1382.1 2297.25,1393.3 2163.8,1301.79C2163.8,1301.79 2132.17,1354.08 2157.87,1422.25C2157.87,1422.25 2071.87,1512.84 2060.99,1623.97C2060.99,1623.97 2056.59,1769.36 2063.38,1806.75C2063.38,1806.75 2055.54,1803.22 2025.77,1771.17C2001.76,1745.32 1991.92,1712.01 1983.64,1678.52C1958.04,1574.94 1957.88,1416.58 1980.26,1331.98C1980.26,1331.98 2013.22,1190.04 2042.21,1178.83C2042.21,1178.83 1976.31,977.119 1990.15,925.445C1990.15,925.445 2029.03,1023.81 2158.86,1011.98C2158.86,1011.98 2103.5,936.03 2116.02,855.096C2116.02,855.096 2214.87,927.936 2319.66,908.636C2319.66,908.636 2386.26,901.486 2429.4,885.102C2447.67,878.16 2466.47,872.501 2485.84,869.124C2559.59,856.268 2717.25,842.187 2793.49,936.652C2793.49,936.652 2853.79,999.219 2863.67,1062.25C2863.67,1062.25 3025.79,1175.72 3033.7,1373.69C3033.7,1373.69 3047.94,1517.37 3029.28,1643.95C3022.78,1688.08 3008.75,1730.93 2988.05,1770.97C2979.53,1787.46 2968.9,1802.88 2956.38,1816.91Z" style="fill:rgb(142,89,48);fill-rule:nonzero;"/>
                </g>
                <g transform="matrix(4.40812,0,0,4.93495,-11812.2,-11923.8)">
                    <path d="M2024.76,1009.49C2024.76,1009.49 2155.25,1467.7 2631.06,1303.34C2631.06,1303.34 2161.84,1333.23 2024.76,1009.49Z" style="fill:rgb(161,128,104);fill-rule:nonzero;"/>
                </g>
                <g transform="matrix(4.40812,0,0,4.93495,-11812.2,-11923.8)">
                    <path d="M2154.23,923.683C2154.23,923.683 2302.75,1324.8 2716.24,1148.38C2716.24,1148.38 2299.25,1204.29 2154.23,923.683Z" style="fill:rgb(161,128,104);fill-rule:nonzero;"/>
                </g>
                <g transform="matrix(4.40812,0,0,4.93495,-11812.2,-11923.8)">
                    <path d="M2287.65,1611.93C2277.75,1622.36 2273.47,1638.39 2278.59,1651.84C2282.27,1661.5 2290.36,1669.12 2299.74,1673.47C2309.12,1677.82 2319.7,1679.11 2330.03,1678.56C2342.08,1677.92 2354.27,1674.69 2363.96,1667.5C2373.66,1660.31 2380.54,1648.8 2380.36,1636.73C2380.18,1624.55 2372.82,1613.17 2362.76,1606.31C2345.82,1594.77 2320.16,1593.13 2301.69,1601.88C2296.46,1604.35 2291.64,1607.72 2287.65,1611.93Z" style="fill:rgb(62,44,56);fill-rule:nonzero;"/>
                </g>
                <g transform="matrix(4.40812,0,0,4.93495,-11812.2,-11923.8)">
                    <path d="M2336.24,1605.56C2331.75,1605.33 2326.87,1607.04 2324.56,1610.9C2322.07,1615.08 2323.19,1620.46 2325.16,1624.91C2328.62,1632.68 2334.51,1639.35 2341.79,1643.75C2346.82,1646.79 2353.19,1648.73 2358.53,1646.27C2363.18,1644.12 2365.96,1638.89 2366.04,1633.77C2366.13,1628.64 2363.86,1623.69 2360.65,1619.69C2354.77,1612.38 2345.87,1606.07 2336.24,1605.56Z" style="fill:white;fill-rule:nonzero;"/>
                </g>
                <g transform="matrix(4.40812,0,0,4.93495,-11812.2,-11923.8)">
                    <path d="M2643.21,1611.93C2633.31,1622.36 2629.02,1638.39 2634.14,1651.84C2637.82,1661.5 2645.91,1669.12 2655.29,1673.47C2664.67,1677.82 2675.25,1679.11 2685.58,1678.56C2697.63,1677.92 2709.82,1674.69 2719.52,1667.5C2729.21,1660.31 2736.1,1648.8 2735.92,1636.73C2735.73,1624.55 2728.37,1613.17 2718.31,1606.31C2701.37,1594.77 2675.71,1593.13 2657.24,1601.88C2652.01,1604.35 2647.19,1607.72 2643.21,1611.93Z" style="fill:rgb(62,44,56);fill-rule:nonzero;"/>
                </g>
                <g transform="matrix(4.40812,0,0,4.93495,-11812.2,-11923.8)">
                    <path d="M2691.79,1605.56C2687.3,1605.33 2682.42,1607.04 2680.12,1610.9C2677.63,1615.08 2678.75,1620.46 2680.72,1624.91C2684.17,1632.68 2690.06,1639.35 2697.34,1643.75C2702.38,1646.79 2708.75,1648.73 2714.08,1646.27C2718.74,1644.12 2721.51,1638.89 2721.6,1633.77C2721.68,1628.64 2719.41,1623.69 2716.2,1619.69C2710.32,1612.38 2701.43,1606.07 2691.79,1605.56Z" style="fill:white;fill-rule:nonzero;"/>
                </g>
                <g transform="matrix(4.40812,0,0,4.93495,-11812.2,-11923.8)">
                    <path d="M2857.22,1727.86C2827.14,1762.05 2788.3,1777.63 2745.7,1778.73C2710.35,1778.39 2680.13,1769.5 2653.19,1750.36C2584.4,1701.67 2575.11,1607.93 2633.09,1548.3C2691.96,1487.79 2793.16,1487.65 2852.16,1548.03C2901.39,1598.29 2903.79,1675.07 2857.22,1727.86ZM2368.2,1750.36C2341.26,1769.5 2311.04,1778.39 2275.69,1778.73C2233.09,1777.63 2194.25,1762.05 2164.17,1727.86C2117.6,1675.07 2120,1598.29 2169.23,1548.03C2228.23,1487.65 2329.43,1487.79 2388.3,1548.3C2446.29,1607.93 2436.98,1701.67 2368.2,1750.36ZM2951.17,1556.78C2948.91,1546.94 2944.06,1540.78 2932.78,1539.35C2916.57,1537.3 2901.94,1530.12 2888.26,1521.23C2855.99,1500.3 2821.19,1485.81 2782.9,1480.34C2748.44,1475.42 2714.66,1479.04 2680.81,1486.42C2644.3,1494.29 2615.31,1514.46 2588.44,1538.73C2582.63,1544 2577.02,1549.53 2571.34,1554.94C2561.43,1564.3 2553.91,1565.06 2542.42,1557.6C2531.96,1550.83 2521.36,1547.21 2510.7,1546.32C2500.03,1547.21 2489.43,1550.83 2478.97,1557.6C2467.48,1565.06 2459.96,1564.3 2450.05,1554.94C2444.37,1549.53 2438.76,1544 2432.95,1538.73C2406.08,1514.46 2377.09,1494.29 2340.58,1486.42C2306.73,1479.04 2272.95,1475.42 2238.49,1480.34C2200.2,1485.81 2165.4,1500.3 2133.12,1521.23C2119.45,1530.12 2104.81,1537.3 2088.61,1539.35C2077.33,1540.78 2072.48,1546.94 2070.22,1556.78C2069.12,1561.84 2068.44,1566.97 2067.48,1572.1L2067.48,1591.52C2070.22,1594.66 2072.34,1598.83 2075.75,1600.88C2088.95,1608.89 2096.06,1620.37 2099.07,1635.28C2101.88,1649.23 2105.02,1663.24 2109.26,1676.85C2121.23,1715.41 2141.47,1747.82 2176.54,1770.18C2220.71,1798.36 2267.48,1810.87 2319.31,1797.4C2356.3,1787.82 2389.67,1771.48 2416.27,1743.24C2438.29,1719.93 2452.03,1691.96 2461.67,1661.74C2464.68,1652.51 2467,1643.14 2470.01,1633.91C2473.98,1621.74 2482.32,1613.74 2495.1,1612.23C2500.23,1611.69 2505.5,1611.35 2510.7,1611.21C2515.89,1611.35 2521.16,1611.69 2526.28,1612.23C2539.07,1613.74 2547.41,1621.74 2551.38,1633.91C2554.38,1643.14 2556.71,1652.51 2559.72,1661.74C2569.36,1691.96 2583.1,1719.93 2605.12,1743.24C2631.72,1771.48 2665.09,1787.82 2702.08,1797.4C2753.91,1810.87 2800.68,1798.36 2844.85,1770.18C2879.92,1747.82 2900.16,1715.41 2912.13,1676.85C2916.37,1663.24 2919.51,1649.23 2922.32,1635.28C2925.32,1620.37 2932.43,1608.89 2945.63,1600.88C2949.05,1598.83 2951.17,1594.66 2953.91,1591.52L2953.91,1572.1C2952.95,1566.97 2952.27,1561.84 2951.17,1556.78Z" style="fill:rgb(51,51,51);fill-rule:nonzero;"/>
                </g>
                <g transform="matrix(4.40812,0,0,4.93495,-11812.2,-11923.8)">
                    <path d="M2275.69,1778.73C2233.09,1777.63 2194.25,1762.05 2164.17,1727.86C2141.79,1702.5 2130.72,1671.59 2130.72,1640.75C2130.71,1607.41 2143.65,1574.14 2169.23,1548.03C2198.68,1517.9 2238.65,1502.83 2278.61,1502.83C2318.72,1502.83 2358.81,1517.99 2388.3,1548.3C2413.95,1574.68 2426.44,1607.73 2426.43,1640.61C2426.42,1682.05 2406.56,1723.21 2368.2,1750.36C2341.26,1769.5 2311.04,1778.39 2275.69,1778.73ZM2327.93,1596.31C2318.7,1596.31 2309.54,1598.15 2301.69,1601.88C2296.46,1604.35 2291.64,1607.72 2287.65,1611.93C2277.75,1622.36 2273.47,1638.39 2278.59,1651.84C2282.27,1661.5 2290.36,1669.12 2299.74,1673.47C2307.78,1677.2 2316.7,1678.68 2325.59,1678.68C2327.07,1678.68 2328.55,1678.64 2330.03,1678.56C2342.08,1677.92 2354.27,1674.69 2363.96,1667.5C2373.66,1660.31 2380.54,1648.8 2380.36,1636.73C2380.18,1624.55 2372.82,1613.17 2362.76,1606.31C2353.02,1599.68 2340.41,1596.31 2327.93,1596.31Z" style="fill:rgb(255,232,206);fill-rule:nonzero;"/>
                </g>
                <g transform="matrix(4.40812,0,0,4.93495,-11812.2,-11923.8)">
                    <path d="M2325.59,1678.68C2316.7,1678.68 2307.78,1677.2 2299.74,1673.47C2290.36,1669.12 2282.27,1661.5 2278.59,1651.84C2273.47,1638.39 2277.75,1622.36 2287.65,1611.93C2291.64,1607.72 2296.46,1604.35 2301.69,1601.88C2309.54,1598.15 2318.7,1596.31 2327.93,1596.31C2340.41,1596.31 2353.02,1599.68 2362.76,1606.31C2372.82,1613.17 2380.18,1624.55 2380.36,1636.73C2380.54,1648.8 2373.66,1660.31 2363.96,1667.5C2354.27,1674.69 2342.08,1677.92 2330.03,1678.56C2328.55,1678.64 2327.07,1678.68 2325.59,1678.68ZM2335.42,1605.54C2331.17,1605.54 2326.73,1607.27 2324.56,1610.9C2322.07,1615.08 2323.19,1620.46 2325.16,1624.91C2328.62,1632.68 2334.51,1639.35 2341.79,1643.75C2345.22,1645.83 2349.28,1647.39 2353.21,1647.39C2355.04,1647.39 2356.83,1647.05 2358.53,1646.27C2363.18,1644.12 2365.96,1638.89 2366.04,1633.77C2366.13,1628.64 2363.86,1623.69 2360.65,1619.69C2354.77,1612.38 2345.87,1606.07 2336.24,1605.56C2335.97,1605.55 2335.69,1605.54 2335.42,1605.54Z" style="fill:rgb(159,150,156);fill-rule:nonzero;"/>
                </g>
                <g transform="matrix(4.40812,0,0,4.93495,-11812.2,-11923.8)">
                    <path d="M2353.21,1647.39C2349.28,1647.39 2345.22,1645.83 2341.79,1643.75C2334.51,1639.35 2328.62,1632.68 2325.16,1624.91C2323.19,1620.46 2322.07,1615.08 2324.56,1610.9C2326.73,1607.27 2331.17,1605.54 2335.42,1605.54C2335.69,1605.54 2335.97,1605.55 2336.24,1605.56C2345.87,1606.07 2354.77,1612.38 2360.65,1619.69C2363.86,1623.69 2366.13,1628.64 2366.04,1633.77C2365.96,1638.89 2363.18,1644.12 2358.53,1646.27C2356.83,1647.05 2355.04,1647.39 2353.21,1647.39Z" style="fill:white;fill-rule:nonzero;"/>
                </g>
                <g transform="matrix(4.40812,0,0,4.93495,-11812.2,-11923.8)">
                    <path d="M2745.7,1778.73C2710.35,1778.39 2680.13,1769.5 2653.19,1750.36C2614.83,1723.21 2594.97,1682.05 2594.96,1640.61C2594.95,1607.73 2607.44,1574.68 2633.09,1548.3C2662.57,1518 2702.68,1502.83 2742.78,1502.83C2782.75,1502.83 2822.71,1517.89 2852.16,1548.03C2877.74,1574.14 2890.67,1607.41 2890.67,1640.75C2890.67,1671.59 2879.59,1702.5 2857.22,1727.86C2827.14,1762.05 2788.3,1777.63 2745.7,1778.73ZM2683.48,1596.31C2674.25,1596.31 2665.1,1598.15 2657.24,1601.88C2652.01,1604.35 2647.19,1607.72 2643.21,1611.93C2633.31,1622.36 2629.02,1638.39 2634.14,1651.84C2637.82,1661.5 2645.91,1669.12 2655.29,1673.47C2663.33,1677.2 2672.26,1678.68 2681.15,1678.68C2682.63,1678.68 2684.11,1678.64 2685.58,1678.56C2697.63,1677.92 2709.82,1674.69 2719.52,1667.5C2729.21,1660.31 2736.1,1648.8 2735.92,1636.73C2735.73,1624.55 2728.37,1613.17 2718.31,1606.31C2708.58,1599.68 2695.96,1596.31 2683.48,1596.31Z" style="fill:rgb(255,232,206);fill-rule:nonzero;"/>
                </g>
                <g transform="matrix(4.40812,0,0,4.93495,-11812.2,-11923.8)">
                    <path d="M2681.15,1678.68C2672.26,1678.68 2663.33,1677.2 2655.29,1673.47C2645.91,1669.12 2637.82,1661.5 2634.14,1651.84C2629.02,1638.39 2633.31,1622.36 2643.21,1611.93C2647.19,1607.72 2652.01,1604.35 2657.24,1601.88C2665.1,1598.15 2674.25,1596.31 2683.48,1596.31C2695.96,1596.31 2708.58,1599.68 2718.31,1606.31C2728.37,1613.17 2735.73,1624.55 2735.92,1636.73C2736.1,1648.8 2729.21,1660.31 2719.52,1667.5C2709.82,1674.69 2697.63,1677.92 2685.58,1678.56C2684.11,1678.64 2682.63,1678.68 2681.15,1678.68ZM2690.98,1605.54C2686.72,1605.54 2682.28,1607.27 2680.12,1610.9C2677.63,1615.08 2678.75,1620.46 2680.72,1624.91C2684.17,1632.68 2690.06,1639.35 2697.34,1643.75C2700.78,1645.83 2704.84,1647.39 2708.76,1647.39C2710.59,1647.39 2712.39,1647.05 2714.08,1646.27C2718.74,1644.12 2721.51,1638.89 2721.6,1633.77C2721.68,1628.64 2719.41,1623.69 2716.2,1619.69C2710.32,1612.38 2701.43,1606.07 2691.79,1605.56C2691.52,1605.55 2691.25,1605.54 2690.98,1605.54Z" style="fill:rgb(159,150,156);fill-rule:nonzero;"/>
                </g>
                <g transform="matrix(4.40812,0,0,4.93495,-11812.2,-11923.8)">
                    <path d="M2708.76,1647.39C2704.84,1647.39 2700.78,1645.83 2697.34,1643.75C2690.06,1639.35 2684.17,1632.68 2680.72,1624.91C2678.75,1620.46 2677.63,1615.08 2680.12,1610.9C2682.28,1607.27 2686.72,1605.54 2690.98,1605.54C2691.25,1605.54 2691.52,1605.55 2691.79,1605.56C2701.43,1606.07 2710.32,1612.38 2716.2,1619.69C2719.41,1623.69 2721.68,1628.64 2721.6,1633.77C2721.51,1638.89 2718.74,1644.12 2714.08,1646.27C2712.39,1647.05 2710.59,1647.39 2708.76,1647.39Z" style="fill:white;fill-rule:nonzero;"/>
                </g>
                <g transform="matrix(4.40812,0,0,4.93495,-11812.2,-11923.8)">
                    <path d="M2165.53,1471.98C2165.53,1471.98 2172.96,1430.19 2242.2,1411.09C2242.2,1411.09 2381.58,1374.25 2415.26,1416.13L2302.77,1427.56C2294.11,1428.44 2285.46,1429.84 2276.96,1431.83C2253.48,1437.3 2205.64,1450.19 2165.53,1471.98Z" style="fill:rgb(142,89,48);fill-rule:nonzero;"/>
                </g>
                <g transform="matrix(4.40812,0,0,4.93495,-11812.2,-11923.8)">
                    <path d="M2829.67,1471.98C2829.67,1471.98 2822.24,1430.19 2753,1411.09C2753,1411.09 2613.61,1374.25 2579.93,1416.13L2692.43,1427.56C2701.09,1428.44 2709.73,1429.84 2718.23,1431.83C2741.72,1437.3 2789.56,1450.19 2829.67,1471.98Z" style="fill:rgb(142,89,48);fill-rule:nonzero;"/>
                </g>
                <g transform="matrix(4.40812,0,0,4.93495,-11812.2,-11923.8)">
                    <path d="M1913.35,2553.85C1978.46,2472.04 1997.33,2478.85 2064.32,2427.54C2046.7,2397.91 1970.53,2268.28 1954.96,2237.55C1924.17,2176.81 1911.39,2199.92 1855.37,2231.01C1816.47,2252.6 1738.67,2335.93 1718.53,2377.02C1678.75,2458.08 1664.8,2515.65 1653.25,2605.18C1646.74,2655.56 1647.9,2748.41 1656.92,2798.4C1671.8,2880.82 1700.54,2969.61 1732.78,3030.71C1732.78,3030.71 1887.84,2988.41 1941.88,2975.16C1941.88,2975.16 1886.32,2846.5 1877.68,2791.89C1864.48,2708.57 1860.81,2619.85 1913.35,2553.85Z" style="fill:rgb(96,96,97);fill-rule:nonzero;"/>
                </g>
            </g>
        </g>
    </g>
</svg>
